<svg width="17" height="17" viewBox="0 0 17 17" fill="none" xmlns="http://www.w3.org/2000/svg">
<path d="M15.572 1H11.4779C11.2401 1 11.0498 1.19027 11.0498 1.42812C11.0498 1.66596 11.2401 1.85624 11.4779 1.85624H14.5382L7.9388 8.4556C7.77073 8.62368 7.77073 8.89323 7.9388 9.06131C8.02125 9.14376 8.13225 9.18816 8.24007 9.18816C8.34789 9.18816 8.45889 9.14693 8.54134 9.06131L15.1439 2.46194V5.5222C15.1439 5.76004 15.3341 5.95032 15.572 5.95032C15.8098 5.95032 16.0001 5.76004 16.0001 5.5222V1.42812C16.0001 1.19027 15.8098 1 15.572 1Z" fill="black" stroke="black" stroke-width="0.5"/>
<path d="M15.5719 8.33192C15.334 8.33192 15.1438 8.5222 15.1438 8.76004V12.9112C15.1438 14.1416 14.1416 15.1438 12.9112 15.1438H4.08879C2.85835 15.1438 1.85624 14.1416 1.85624 12.9112V4.08879C1.85624 2.85835 2.85835 1.85624 4.08879 1.85624H8.20825C8.44609 1.85624 8.63636 1.66596 8.63636 1.42812C8.63636 1.19027 8.44609 1 8.20825 1H4.08879C2.38584 1 1 2.38584 1 4.08879V12.9112C1 14.6142 2.38584 16 4.08879 16H12.9112C14.6142 16 16 14.6142 16 12.9112V8.76004C16 8.5222 15.8097 8.33192 15.5719 8.33192Z" fill="black" stroke="black" stroke-width="0.5"/>
</svg>
