<svg width="14" height="14" viewBox="0 0 14 14" fill="none" xmlns="http://www.w3.org/2000/svg">
<g clip-path="url(#clip0_6_150)">
<path d="M13.6572 6.16846L8.0906 0.662276C7.63606 0.212799 6.90312 0.216436 6.45364 0.671245C6.00416 1.12551 6.0081 1.85846 6.46263 2.30793L10.0271 5.83413H1.15817C0.519061 5.83415 0.000732422 6.35218 0.000732422 6.99129C0.000732422 7.63067 0.519061 8.14869 1.15817 8.14869H10.027L6.46263 11.6746C6.0081 12.1241 6.00416 12.8573 6.45364 13.3116C6.90312 13.7661 7.63606 13.77 8.0906 13.3206L13.6572 7.81442C13.8771 7.59668 14.0007 7.30057 14.0007 6.99131C14.0007 6.68197 13.8771 6.38614 13.6572 6.16846Z" fill="#2AA9F5"/>
</g>
<defs>
<clipPath id="clip0_6_150">
<rect width="14" height="14" fill="white" transform="translate(0.000732422 -0.00878906)"/>
</clipPath>
</defs>
</svg>
