<svg width="21" height="11" viewBox="0 0 21 11" fill="none" xmlns="http://www.w3.org/2000/svg">
<path d="M10.1241 0.216014L9.32205 1.01668L0.650376 9.6739C0.449875 9.87406 0.449875 10.2244 0.650376 10.4245L1.1015 10.8499C1.302 11.05 1.62782 11.05 1.85338 10.8499C2.1792 10.5246 2.63033 10.0742 3.10652 9.57381L6.38972 6.29608L10.4749 2.21768L11.302 3.04337C13.2318 4.94495 17.4674 9.1985 19.1466 10.8499C19.3471 11.05 19.698 11.05 19.8985 10.8499L20.3496 10.4245C20.5501 10.2244 20.5501 9.89908 20.3496 9.69892L11.6779 1.0417L11.1015 0.466222L10.8759 0.241035C10.6754 0.0408679 10.3496 0.0408679 10.1491 0.241035L10.1241 0.216014Z" fill="black"/>
</svg>
