<?xml version="1.0" encoding="utf-8"?>
<!-- Generator: Adobe Illustrator 28.1.0, SVG Export Plug-In . SVG Version: 6.00 Build 0)  -->
<svg version="1.1" id="レイヤー_1" xmlns="http://www.w3.org/2000/svg" xmlns:xlink="http://www.w3.org/1999/xlink" x="0px"
	 y="0px" viewBox="0 0 48 33" style="enable-background:new 0 0 48 33;" xml:space="preserve">
<style type="text/css">
	.st0{fill:#FFFFFF;}
</style>
<path class="st0" d="M46.4,0.8H1.6c-0.5,0-0.9,0.4-0.9,0.9v29.9c0,0.5,0.4,0.9,0.9,0.9h44.8c0.5,0,0.9-0.4,0.9-0.9V1.7
	C47.3,1.3,46.9,0.8,46.4,0.8L46.4,0.8z M41.9,3.7C36.4,8.2,25.3,17.5,24,18.6C22.7,17.5,11.6,8.2,6.2,3.7H41.9z M3.6,29.7V5.3
	l19.7,16.4c0.4,0.3,1,0.3,1.4,0L44.4,5.3v24.3H3.6z"/>
</svg>
