<svg width="17" height="30" viewBox="0 0 17 30" fill="none" xmlns="http://www.w3.org/2000/svg">
<path d="M16.176 14.4361L14.975 13.2331L1.98916 0.225564C1.68891 -0.075188 1.16347 -0.075188 0.863219 0.225564L0.225188 0.902256C-0.0750625 1.20301 -0.0750625 1.69173 0.225188 2.03008C0.713094 2.5188 1.38866 3.19549 2.13928 3.90977L7.05588 8.83459L13.1735 14.9624L11.9349 16.203C9.08257 19.0977 2.70225 25.4511 0.225188 27.9699C-0.0750625 28.2707 -0.0750625 28.797 0.225188 29.0977L0.863219 29.7744C1.16347 30.0752 1.65138 30.0752 1.95163 29.7744L14.9374 16.7669L15.8007 15.9023L16.1384 15.5639C16.4387 15.2632 16.4387 14.7744 16.1384 14.4737L16.176 14.4361Z" fill="black"/>
</svg>
