<svg width="21" height="11" viewBox="0 0 21 11" fill="none" xmlns="http://www.w3.org/2000/svg">
<path d="M10.8759 10.784L11.6779 9.98332L20.3496 1.3261C20.5501 1.12594 20.5501 0.775646 20.3496 0.57548L19.8985 0.150125C19.698 -0.0500417 19.3722 -0.0500417 19.1466 0.150125C18.8208 0.475396 18.3697 0.925771 17.8935 1.42619L14.6103 4.70392L10.5251 8.78232L9.69799 7.95663C7.76817 6.05505 3.53258 1.8015 1.85338 0.150124C1.65288 -0.0500425 1.30201 -0.0500425 1.10151 0.150124L0.650375 0.575479C0.449875 0.775645 0.449875 1.10092 0.650375 1.30108L9.32205 9.9583L9.8985 10.5338L10.1241 10.759C10.3246 10.9591 10.6504 10.9591 10.8509 10.759L10.8759 10.784Z" fill="black"/>
</svg>
