<svg width="17" height="30" viewBox="0 0 17 30" fill="none" xmlns="http://www.w3.org/2000/svg">
<path d="M0.733201 15.5639L1.9342 16.7669L14.92 29.7744C15.2203 30.0752 15.7457 30.0752 16.046 29.7744L16.684 29.0977C16.9842 28.797 16.9842 28.3083 16.684 27.9699C16.1961 27.4812 15.5205 26.8045 14.7699 26.0902L9.8533 21.1654L3.7357 15.0376L4.97424 13.797C7.82661 10.9023 14.2069 4.54887 16.684 2.03008C16.9842 1.72932 16.9842 1.20301 16.684 0.902258L16.046 0.225563C15.7457 -0.0751897 15.2578 -0.0751897 14.9576 0.225563L1.97173 13.2331L1.10851 14.0977L0.770732 14.4361C0.470481 14.7368 0.470481 15.2256 0.770732 15.5263L0.733201 15.5639Z" fill="black"/>
</svg>
