<svg width="14" height="14" viewBox="0 0 14 14" fill="none" xmlns="http://www.w3.org/2000/svg">
<g clip-path="url(#clip0_6_218)">
<path d="M13.6565 6.17725L8.08987 0.671065C7.63533 0.221588 6.90238 0.225225 6.45291 0.680034C6.00343 1.1343 6.00737 1.86724 6.4619 2.31672L10.0263 5.84292H1.15743C0.518328 5.84294 0 6.36097 0 7.00008C0 7.63945 0.518328 8.15748 1.15743 8.15748H10.0263L6.4619 11.6834C6.00737 12.1329 6.00343 12.8661 6.45291 13.3204C6.90238 13.7749 7.63533 13.7788 8.08987 13.3294L13.6565 7.82321C13.8764 7.60547 14 7.30936 14 7.0001C14 6.69076 13.8764 6.39493 13.6565 6.17725Z" fill="#222222"/>
</g>
<defs>
<clipPath id="clip0_6_218">
<rect width="14" height="14" fill="white"/>
</clipPath>
</defs>
</svg>
